<svg width="54" height="56" viewBox="0 0 54 56" fill="none" xmlns="http://www.w3.org/2000/svg">
<path d="M53.5 28C53.5 43.2051 41.6186 55.5 27 55.5C12.3814 55.5 0.5 43.2051 0.5 28C0.5 12.7949 12.3814 0.5 27 0.5C41.6186 0.5 53.5 12.7949 53.5 28Z" fill="#134280"/>
<path d="M53.5 28C53.5 43.2051 41.6186 55.5 27 55.5C12.3814 55.5 0.5 43.2051 0.5 28C0.5 12.7949 12.3814 0.5 27 0.5C41.6186 0.5 53.5 12.7949 53.5 28Z" stroke="white"/>
<path d="M53.5 28C53.5 43.2051 41.6186 55.5 27 55.5C12.3814 55.5 0.5 43.2051 0.5 28C0.5 12.7949 12.3814 0.5 27 0.5C41.6186 0.5 53.5 12.7949 53.5 28Z" stroke="white"/>
<path d="M13.5003 31.852C13.1435 27.7423 15.2798 24.4815 17.0908 23.1674C18.9421 21.8237 19.806 21.6318 20.2234 21.3734C22.1465 20.1872 23.4997 17.5417 26.0848 15.5902C29.0267 13.3704 33.0502 13.0406 35.5186 14.5246C37.7694 15.8781 40.0762 18.8263 39.4591 24.6956C38.842 30.565 25.3959 40.2242 23.089 40.362C20.7822 40.4998 14.0389 38.0635 13.5003 31.852Z" fill="#B8885A"/>
<path d="M28.4908 30.5403C27.4338 31.2195 23.4642 35.5336 18.9088 35.4154C14.3535 35.2973 13.6533 32.8831 13.6533 32.8831C13.6533 32.8831 14.3063 37.0913 17.448 39.5843C21.0025 42.4045 24.7724 41.2946 25.872 41.0239C27.5034 40.6228 28.944 39.8008 30.3869 38.942C31.8298 38.0831 36.9597 35.3736 38.9748 31.1088C41.1986 26.4035 40.669 22.6333 39.5582 19.8918C38.3824 16.9904 37.2357 15.9248 37.2357 15.9248C37.2357 15.9248 38.3038 22.0009 36.0419 25.3822C32.8329 30.1786 29.5477 29.8611 28.4908 30.5403Z" fill="#875B52"/>
<path d="M26.8278 35.5797C26.8413 35.8897 27.8489 35.8651 28.5804 35.7347C29.3546 35.5969 29.9941 35.5846 30.1019 35.2573C30.2096 34.93 29.0292 33.7906 28.3336 33.8299C27.8982 33.857 26.8076 35.1268 26.8278 35.5797ZM32.0699 36.1777C32.2202 36.4164 32.844 36.0522 33.0729 35.7249C33.3018 35.3976 33.5599 34.7651 33.3534 34.6248C33.147 34.4845 32.5568 34.487 32.2651 34.8808C31.9756 35.277 31.9195 35.939 32.0699 36.1777ZM38.95 21.0872C38.7054 20.6147 38.2678 21.732 38.2476 22.1183C38.2274 22.5047 38.4922 22.7311 38.7862 22.8C39.0757 22.8665 39.7354 22.6056 38.95 21.0872ZM19.1645 38.0184C18.9671 38.3851 19.2924 38.6509 19.6223 38.897C19.8826 39.0914 20.5199 39.1948 20.6456 38.9782C20.7735 38.7617 20.5222 38.4688 20.0464 38.0308C19.721 37.733 19.362 37.6518 19.1645 38.0184Z" fill="#513531"/>
<path d="M16.5436 32.3974C16.2631 32.6116 16.4897 33.5615 16.5279 33.7436C16.566 33.9257 17.6835 33.9897 17.8496 33.7091C18.0157 33.4286 17.6656 33.0225 17.4187 32.7395C17.1719 32.459 16.8241 32.1833 16.5436 32.3974ZM18.5408 30.1851C18.8863 30.6994 19.5124 30.0817 19.6134 29.6215C19.7211 29.1269 19.3419 28.8045 18.9133 29.0973C18.5699 29.3287 18.3388 29.8873 18.5408 30.1851ZM23.0108 20.393C22.562 20.1863 22.3915 20.6194 22.2232 21.0574C22.0549 21.4955 21.5118 22.2928 21.8529 22.4036C22.194 22.5143 22.9974 22.4626 23.1971 22.1058C23.3968 21.7465 23.4596 20.6022 23.0108 20.393Z" fill="#875B52"/>
<path d="M15.3469 31.2264C15.8406 31.47 16.608 30.3183 16.9603 29.7646C17.4787 28.95 18.2596 27.9213 20.0885 26.6786C22.5973 24.9756 25.2161 25.4038 26.5625 24.1216C27.9089 22.8395 28.6898 20.2973 29.7176 19.0373C31.5958 16.7339 33.5458 18.3065 33.8174 17.1916C34.0889 16.0768 32.6976 15.1294 31.055 15.1318C29.4146 15.1368 27.5386 15.7988 25.8332 18.8232C24.1277 21.8477 23.7036 22.7731 22.1216 23.3194C20.5395 23.8682 18.5738 24.5917 16.6798 26.9025C15.6274 28.1871 14.5233 30.8203 15.3469 31.2264Z" fill="#D9AC82"/>
<path d="M31.2121 19.99C31.3086 20.7775 32.2959 21.2057 32.8771 21.2131C33.4224 21.2205 33.8151 20.8316 33.8084 20.4354C33.8017 19.9605 33.0971 19.7414 32.821 19.6233C32.2802 19.3945 32.1546 18.8973 31.6497 19.0745C31.1919 19.237 31.1986 19.8694 31.2121 19.99Z" fill="#875B52"/>
<path d="M13.5003 31.852C13.1435 27.7423 15.2798 24.4815 17.0908 23.1674C18.9421 21.8237 19.806 21.6318 20.2234 21.3734C22.1465 20.1872 23.4997 17.5417 26.0848 15.5902C29.0267 13.3704 33.0502 13.0406 35.5186 14.5246C37.7694 15.8781 40.0762 18.8263 39.4591 24.6956C38.842 30.565 25.3959 40.2242 23.089 40.362C20.7822 40.4998 14.0389 38.0635 13.5003 31.852Z" fill="#B8885A"/>
<path d="M28.4908 30.5403C27.4338 31.2195 23.4642 35.5336 18.9088 35.4154C14.3535 35.2973 13.6533 32.8831 13.6533 32.8831C13.6533 32.8831 14.3063 37.0913 17.448 39.5843C21.0025 42.4045 24.7724 41.2946 25.872 41.0239C27.5034 40.6228 28.944 39.8008 30.3869 38.942C31.8298 38.0831 36.9597 35.3736 38.9748 31.1088C41.1986 26.4035 40.669 22.6333 39.5582 19.8918C38.3824 16.9904 37.2357 15.9248 37.2357 15.9248C37.2357 15.9248 38.3038 22.0009 36.0419 25.3822C32.8329 30.1786 29.5477 29.8611 28.4908 30.5403Z" fill="#875B52"/>
<path d="M26.8278 35.5797C26.8413 35.8897 27.8489 35.8651 28.5804 35.7347C29.3546 35.5969 29.9941 35.5846 30.1019 35.2573C30.2096 34.93 29.0292 33.7906 28.3336 33.8299C27.8982 33.857 26.8076 35.1268 26.8278 35.5797ZM32.0699 36.1777C32.2202 36.4164 32.844 36.0522 33.0729 35.7249C33.3018 35.3976 33.5599 34.7651 33.3534 34.6248C33.147 34.4845 32.5568 34.487 32.2651 34.8808C31.9756 35.277 31.9195 35.939 32.0699 36.1777ZM38.95 21.0872C38.7054 20.6147 38.2678 21.732 38.2476 22.1183C38.2274 22.5047 38.4922 22.7311 38.7862 22.8C39.0757 22.8665 39.7354 22.6056 38.95 21.0872ZM19.1645 38.0184C18.9671 38.3851 19.2924 38.6509 19.6223 38.897C19.8826 39.0914 20.5199 39.1948 20.6456 38.9782C20.7735 38.7617 20.5222 38.4688 20.0464 38.0308C19.721 37.733 19.362 37.6518 19.1645 38.0184Z" fill="#513531"/>
<path d="M16.5436 32.3974C16.2631 32.6116 16.4897 33.5615 16.5279 33.7436C16.566 33.9257 17.6835 33.9897 17.8496 33.7091C18.0157 33.4286 17.6656 33.0225 17.4187 32.7395C17.1719 32.459 16.8241 32.1833 16.5436 32.3974ZM18.5408 30.1851C18.8863 30.6994 19.5124 30.0817 19.6134 29.6215C19.7211 29.1269 19.3419 28.8045 18.9133 29.0973C18.5699 29.3287 18.3388 29.8873 18.5408 30.1851ZM23.0108 20.393C22.562 20.1863 22.3915 20.6194 22.2232 21.0574C22.0549 21.4955 21.5118 22.2928 21.8529 22.4036C22.194 22.5143 22.9974 22.4626 23.1971 22.1058C23.3968 21.7465 23.4596 20.6022 23.0108 20.393Z" fill="#875B52"/>
<path d="M15.3469 31.2264C15.8406 31.47 16.608 30.3183 16.9603 29.7646C17.4787 28.95 18.2596 27.9213 20.0885 26.6786C22.5973 24.9756 25.2161 25.4038 26.5625 24.1216C27.9089 22.8395 28.6898 20.2973 29.7176 19.0373C31.5958 16.7339 33.5458 18.3065 33.8174 17.1916C34.0889 16.0768 32.6976 15.1294 31.055 15.1318C29.4146 15.1368 27.5386 15.7988 25.8332 18.8232C24.1277 21.8477 23.7036 22.7731 22.1216 23.3194C20.5395 23.8682 18.5738 24.5917 16.6798 26.9025C15.6274 28.1871 14.5233 30.8203 15.3469 31.2264Z" fill="#D9AC82"/>
<path d="M31.2121 19.99C31.3086 20.7775 32.2959 21.2057 32.8771 21.2131C33.4224 21.2205 33.8151 20.8316 33.8084 20.4354C33.8017 19.9605 33.0971 19.7414 32.821 19.6233C32.2802 19.3945 32.1546 18.8973 31.6497 19.0745C31.1919 19.237 31.1986 19.8694 31.2121 19.99Z" fill="#875B52"/>
<path d="M53.5 28C53.5 43.2051 41.6186 55.5 27 55.5C12.3814 55.5 0.5 43.2051 0.5 28C0.5 12.7949 12.3814 0.5 27 0.5C41.6186 0.5 53.5 12.7949 53.5 28Z" fill="#134280"/>
<path d="M53.5 28C53.5 43.2051 41.6186 55.5 27 55.5C12.3814 55.5 0.5 43.2051 0.5 28C0.5 12.7949 12.3814 0.5 27 0.5C41.6186 0.5 53.5 12.7949 53.5 28Z" stroke="white"/>
<path d="M53.5 28C53.5 43.2051 41.6186 55.5 27 55.5C12.3814 55.5 0.5 43.2051 0.5 28C0.5 12.7949 12.3814 0.5 27 0.5C41.6186 0.5 53.5 12.7949 53.5 28Z" stroke="white"/>
<path d="M13.5003 31.852C13.1435 27.7423 15.2798 24.4815 17.0908 23.1674C18.9421 21.8237 19.806 21.6318 20.2234 21.3734C22.1465 20.1872 23.4997 17.5417 26.0848 15.5902C29.0267 13.3704 33.0502 13.0406 35.5186 14.5246C37.7694 15.8781 40.0762 18.8263 39.4591 24.6956C38.842 30.565 25.3959 40.2242 23.089 40.362C20.7822 40.4998 14.0389 38.0635 13.5003 31.852Z" fill="#B8885A"/>
<path d="M28.4908 30.5403C27.4338 31.2195 23.4642 35.5336 18.9088 35.4154C14.3535 35.2973 13.6533 32.8831 13.6533 32.8831C13.6533 32.8831 14.3063 37.0913 17.448 39.5843C21.0025 42.4045 24.7724 41.2946 25.872 41.0239C27.5034 40.6228 28.944 39.8008 30.3869 38.942C31.8298 38.0831 36.9597 35.3736 38.9748 31.1088C41.1986 26.4035 40.669 22.6333 39.5582 19.8918C38.3824 16.9904 37.2357 15.9248 37.2357 15.9248C37.2357 15.9248 38.3038 22.0009 36.0419 25.3822C32.8329 30.1786 29.5477 29.8611 28.4908 30.5403Z" fill="#875B52"/>
<path d="M26.8278 35.5797C26.8413 35.8897 27.8489 35.8651 28.5804 35.7347C29.3546 35.5969 29.9941 35.5846 30.1019 35.2573C30.2096 34.93 29.0292 33.7906 28.3336 33.8299C27.8982 33.857 26.8076 35.1268 26.8278 35.5797ZM32.0699 36.1777C32.2202 36.4164 32.844 36.0522 33.0729 35.7249C33.3018 35.3976 33.5599 34.7651 33.3534 34.6248C33.147 34.4845 32.5568 34.487 32.2651 34.8808C31.9756 35.277 31.9195 35.939 32.0699 36.1777ZM38.95 21.0872C38.7054 20.6147 38.2678 21.732 38.2476 22.1183C38.2274 22.5047 38.4922 22.7311 38.7862 22.8C39.0757 22.8665 39.7354 22.6056 38.95 21.0872ZM19.1645 38.0184C18.9671 38.3851 19.2924 38.6509 19.6223 38.897C19.8826 39.0914 20.5199 39.1948 20.6456 38.9782C20.7735 38.7617 20.5222 38.4688 20.0464 38.0308C19.721 37.733 19.362 37.6518 19.1645 38.0184Z" fill="#513531"/>
<path d="M16.5436 32.3974C16.2631 32.6116 16.4897 33.5615 16.5279 33.7436C16.566 33.9257 17.6835 33.9897 17.8496 33.7091C18.0157 33.4286 17.6656 33.0225 17.4187 32.7395C17.1719 32.459 16.8241 32.1833 16.5436 32.3974ZM18.5408 30.1851C18.8863 30.6994 19.5124 30.0817 19.6134 29.6215C19.7211 29.1269 19.3419 28.8045 18.9133 29.0973C18.5699 29.3287 18.3388 29.8873 18.5408 30.1851ZM23.0108 20.393C22.562 20.1863 22.3915 20.6194 22.2232 21.0574C22.0549 21.4955 21.5118 22.2928 21.8529 22.4036C22.194 22.5143 22.9974 22.4626 23.1971 22.1058C23.3968 21.7465 23.4596 20.6022 23.0108 20.393Z" fill="#875B52"/>
<path d="M15.3469 31.2264C15.8406 31.47 16.608 30.3183 16.9603 29.7646C17.4787 28.95 18.2596 27.9213 20.0885 26.6786C22.5973 24.9756 25.2161 25.4038 26.5625 24.1216C27.9089 22.8395 28.6898 20.2973 29.7176 19.0373C31.5958 16.7339 33.5458 18.3065 33.8174 17.1916C34.0889 16.0768 32.6976 15.1294 31.055 15.1318C29.4146 15.1368 27.5386 15.7988 25.8332 18.8232C24.1277 21.8477 23.7036 22.7731 22.1216 23.3194C20.5395 23.8682 18.5738 24.5917 16.6798 26.9025C15.6274 28.1871 14.5233 30.8203 15.3469 31.2264Z" fill="#D9AC82"/>
<path d="M31.2121 19.99C31.3086 20.7775 32.2959 21.2057 32.8771 21.2131C33.4224 21.2205 33.8151 20.8316 33.8084 20.4354C33.8017 19.9605 33.0971 19.7414 32.821 19.6233C32.2802 19.3945 32.1546 18.8973 31.6497 19.0745C31.1919 19.237 31.1986 19.8694 31.2121 19.99Z" fill="#875B52"/>
<path d="M13.5003 31.852C13.1435 27.7423 15.2798 24.4815 17.0908 23.1674C18.9421 21.8237 19.806 21.6318 20.2234 21.3734C22.1465 20.1872 23.4997 17.5417 26.0848 15.5902C29.0267 13.3704 33.0502 13.0406 35.5186 14.5246C37.7694 15.8781 40.0762 18.8263 39.4591 24.6956C38.842 30.565 25.3959 40.2242 23.089 40.362C20.7822 40.4998 14.0389 38.0635 13.5003 31.852Z" fill="#B8885A"/>
<path d="M28.4908 30.5403C27.4338 31.2195 23.4642 35.5336 18.9088 35.4154C14.3535 35.2973 13.6533 32.8831 13.6533 32.8831C13.6533 32.8831 14.3063 37.0913 17.448 39.5843C21.0025 42.4045 24.7724 41.2946 25.872 41.0239C27.5034 40.6228 28.944 39.8008 30.3869 38.942C31.8298 38.0831 36.9597 35.3736 38.9748 31.1088C41.1986 26.4035 40.669 22.6333 39.5582 19.8918C38.3824 16.9904 37.2357 15.9248 37.2357 15.9248C37.2357 15.9248 38.3038 22.0009 36.0419 25.3822C32.8329 30.1786 29.5477 29.8611 28.4908 30.5403Z" fill="#875B52"/>
<path d="M26.8278 35.5797C26.8413 35.8897 27.8489 35.8651 28.5804 35.7347C29.3546 35.5969 29.9941 35.5846 30.1019 35.2573C30.2096 34.93 29.0292 33.7906 28.3336 33.8299C27.8982 33.857 26.8076 35.1268 26.8278 35.5797ZM32.0699 36.1777C32.2202 36.4164 32.844 36.0522 33.0729 35.7249C33.3018 35.3976 33.5599 34.7651 33.3534 34.6248C33.147 34.4845 32.5568 34.487 32.2651 34.8808C31.9756 35.277 31.9195 35.939 32.0699 36.1777ZM38.95 21.0872C38.7054 20.6147 38.2678 21.732 38.2476 22.1183C38.2274 22.5047 38.4922 22.7311 38.7862 22.8C39.0757 22.8665 39.7354 22.6056 38.95 21.0872ZM19.1645 38.0184C18.9671 38.3851 19.2924 38.6509 19.6223 38.897C19.8826 39.0914 20.5199 39.1948 20.6456 38.9782C20.7735 38.7617 20.5222 38.4688 20.0464 38.0308C19.721 37.733 19.362 37.6518 19.1645 38.0184Z" fill="#513531"/>
<path d="M16.5436 32.3974C16.2631 32.6116 16.4897 33.5615 16.5279 33.7436C16.566 33.9257 17.6835 33.9897 17.8496 33.7091C18.0157 33.4286 17.6656 33.0225 17.4187 32.7395C17.1719 32.459 16.8241 32.1833 16.5436 32.3974ZM18.5408 30.1851C18.8863 30.6994 19.5124 30.0817 19.6134 29.6215C19.7211 29.1269 19.3419 28.8045 18.9133 29.0973C18.5699 29.3287 18.3388 29.8873 18.5408 30.1851ZM23.0108 20.393C22.562 20.1863 22.3915 20.6194 22.2232 21.0574C22.0549 21.4955 21.5118 22.2928 21.8529 22.4036C22.194 22.5143 22.9974 22.4626 23.1971 22.1058C23.3968 21.7465 23.4596 20.6022 23.0108 20.393Z" fill="#875B52"/>
<path d="M15.3469 31.2264C15.8406 31.47 16.608 30.3183 16.9603 29.7646C17.4787 28.95 18.2596 27.9213 20.0885 26.6786C22.5973 24.9756 25.2161 25.4038 26.5625 24.1216C27.9089 22.8395 28.6898 20.2973 29.7176 19.0373C31.5958 16.7339 33.5458 18.3065 33.8174 17.1916C34.0889 16.0768 32.6976 15.1294 31.055 15.1318C29.4146 15.1368 27.5386 15.7988 25.8332 18.8232C24.1277 21.8477 23.7036 22.7731 22.1216 23.3194C20.5395 23.8682 18.5738 24.5917 16.6798 26.9025C15.6274 28.1871 14.5233 30.8203 15.3469 31.2264Z" fill="#D9AC82"/>
<path d="M31.2121 19.99C31.3086 20.7775 32.2959 21.2057 32.8771 21.2131C33.4224 21.2205 33.8151 20.8316 33.8084 20.4354C33.8017 19.9605 33.0971 19.7414 32.821 19.6233C32.2802 19.3945 32.1546 18.8973 31.6497 19.0745C31.1919 19.237 31.1986 19.8694 31.2121 19.99Z" fill="#875B52"/>
</svg>
