<svg width="54" height="56" viewBox="0 0 54 56" fill="none" xmlns="http://www.w3.org/2000/svg">
<path d="M53.5 28C53.5 43.2051 41.6186 55.5 27 55.5C12.3814 55.5 0.5 43.2051 0.5 28C0.5 12.7949 12.3814 0.5 27 0.5C41.6186 0.5 53.5 12.7949 53.5 28Z" fill="#134280"/>
<path d="M53.5 28C53.5 43.2051 41.6186 55.5 27 55.5C12.3814 55.5 0.5 43.2051 0.5 28C0.5 12.7949 12.3814 0.5 27 0.5C41.6186 0.5 53.5 12.7949 53.5 28Z" stroke="white"/>
<path d="M53.5 28C53.5 43.2051 41.6186 55.5 27 55.5C12.3814 55.5 0.5 43.2051 0.5 28C0.5 12.7949 12.3814 0.5 27 0.5C41.6186 0.5 53.5 12.7949 53.5 28Z" stroke="white"/>
<g clip-path="url(#clip0_2001_1365)">
<path d="M12.8871 32.5075L13.108 32.3959L13.3737 32.2639L13.5422 32.1804C13.5717 32.1655 13.6043 32.1504 13.6338 32.1343L13.716 32.0841C13.8383 32.0088 13.961 31.9345 14.0843 31.8611C14.2131 31.7857 14.3665 31.6879 14.5256 31.5876C14.6849 31.4868 14.8534 31.3837 15.0267 31.2618L15.2933 31.0824L15.4303 30.9901L15.5683 30.8898C15.9404 30.6242 16.3304 30.3215 16.7303 29.9924L17.0317 29.7411C17.1328 29.6563 17.2325 29.5629 17.3343 29.4747C17.4355 29.384 17.5385 29.2979 17.6395 29.2023L17.9442 28.916C18.0464 28.8221 18.1472 28.7212 18.2487 28.621L18.5532 28.3198L18.8546 28.0051C18.9047 27.9526 18.9549 27.9 19.0051 27.8474L19.1542 27.6846C19.5545 27.259 19.9406 26.7962 20.3209 26.3393C20.5092 26.1054 20.6963 25.8749 20.8775 25.6354C21.061 25.4028 21.2388 25.1596 21.4151 24.9254C21.5891 24.6826 21.7617 24.4489 21.9278 24.2067C22.096 23.9709 22.2587 23.7303 22.418 23.4961C22.4977 23.3791 22.5753 23.2588 22.6527 23.1425C22.7298 23.0268 22.8058 22.9103 22.8806 22.793L23.103 22.4501L23.318 22.1107C23.4592 21.8884 23.5951 21.6658 23.7264 21.4532C23.8578 21.2368 23.9826 21.0296 24.1083 20.8301C24.3581 20.4359 24.6038 20.0787 24.8355 19.7737C24.9445 19.6291 25.0567 19.4872 25.172 19.3482C25.2805 19.2162 25.3843 19.0996 25.4787 18.9946C25.6729 18.7805 25.8348 18.6228 25.9545 18.513C26.0721 18.405 26.1404 18.3532 26.1404 18.3532C29.0496 16.1465 33.1067 16.8411 35.2022 19.9047C36.8561 22.3226 36.7938 25.4934 35.2637 27.8074L35.23 27.855C35.23 27.855 35.1833 27.9254 35.0853 28.0464C34.9895 28.1656 34.8352 28.3438 34.627 28.5572C34.5197 28.6655 34.4003 28.7851 34.2658 28.9102C34.1175 29.0482 33.9663 29.1826 33.8122 29.3135C33.4771 29.5973 33.0832 29.9043 32.623 30.2212C32.1643 30.5362 31.6449 30.8624 31.0941 31.2074C30.5448 31.5526 29.9472 31.9045 29.3244 32.2564C28.7005 32.6091 28.0416 32.9571 27.3642 33.2925C26.6831 33.6264 25.9828 33.9468 25.2698 34.2409C25.093 34.3159 24.9112 34.3852 24.733 34.4566C24.5543 34.5278 24.3757 34.5971 24.1937 34.662L23.6538 34.8574L23.1117 35.0393L22.843 35.1279L22.5718 35.2096L22.0353 35.3685L21.5006 35.5118L21.237 35.5811C21.1495 35.6037 21.0601 35.6226 20.9725 35.6433L20.4515 35.7617C20.2803 35.8008 20.1064 35.8312 19.9377 35.865C19.768 35.8973 19.6019 35.9306 19.4352 35.9576L18.9422 36.0339C18.2956 36.1334 17.6787 36.187 17.1142 36.2246C16.5484 36.2586 16.0333 36.2736 15.5756 36.2603C15.3473 36.2565 15.1393 36.2544 14.9288 36.2433C14.7419 36.2356 14.5551 36.2258 14.3683 36.2139L14.246 36.2063C14.2089 36.2027 14.1766 36.1974 14.1433 36.1932L13.9585 36.1684L13.6672 36.1289L13.4243 36.0943C12.4393 35.9539 11.7488 34.9991 11.8822 33.9618C11.9658 33.3105 12.3654 32.7761 12.8871 32.5075Z" fill="#FF473E"/>
<path d="M28.9573 21.4344L28.743 21.5706L28.6301 21.6424C28.6071 21.6564 28.5935 21.6669 28.5774 21.6785L28.5271 21.7144L28.4154 21.7928L28.354 21.8349L28.2856 21.8902C28.1927 21.9681 28.0873 22.0439 27.9831 22.1429L27.8198 22.2898C27.7643 22.3409 27.7096 22.3978 27.6525 22.4532C27.5376 22.5624 27.4238 22.688 27.3059 22.8123C27.247 22.8746 27.1896 22.9425 27.1306 23.008C27.072 23.074 27.0128 23.14 26.9547 23.2099L26.7796 23.4164L26.606 23.6273L26.2655 24.0458C26.1532 24.1842 26.0451 24.3177 25.9373 24.4466C25.8332 24.5743 25.7252 24.6969 25.6288 24.8088C25.5366 24.9121 25.4428 25.0139 25.3475 25.1141C25.2559 25.2042 25.1796 25.2823 25.1107 25.3456L24.8849 25.5411C24.7741 25.6372 24.633 25.6861 24.4897 25.678C24.3463 25.6699 24.2111 25.6054 24.1107 25.4973C24.0103 25.3893 23.9521 25.2455 23.9476 25.0944C23.943 24.9433 23.9925 24.7959 24.0862 24.6813L24.1287 24.6295L24.2645 24.4633C24.3073 24.4079 24.3583 24.3334 24.4173 24.253C24.4831 24.1554 24.5476 24.0567 24.6108 23.9571C24.6805 23.8421 24.7562 23.7217 24.8353 23.5838C24.9144 23.4498 24.9984 23.3023 25.0852 23.1503L25.3584 22.6733L25.5023 22.4252L25.653 22.1736C25.7024 22.0895 25.7556 22.0055 25.8084 21.9218C25.8617 21.8381 25.9122 21.7542 25.9674 21.6718C26.0781 21.5072 26.1839 21.3437 26.2994 21.1891C26.3562 21.1115 26.4099 21.0341 26.4669 20.9602L26.6377 20.7445C26.7457 20.6024 26.8653 20.4766 26.9689 20.3564L27.0469 20.2688L27.1324 20.1828L27.2919 20.0245L27.3652 19.9527C27.3887 19.9297 27.413 19.9057 27.4295 19.8915L27.5297 19.801L27.7197 19.6295C28.1644 19.2278 28.8341 19.282 29.2155 19.7503C29.5968 20.2186 29.5455 20.9238 29.1008 21.3254C29.0578 21.3643 29.0119 21.3995 28.9636 21.4307L28.9573 21.4344Z" fill="#FF6E83"/>
<path d="M41.9513 19.1272L41.9341 19.1063L41.6227 18.7269C41.5729 18.6668 41.5101 18.6049 41.4459 18.5352C41.3798 18.4667 41.312 18.39 41.2325 18.3133L40.9711 18.0751C40.9476 18.0546 40.9255 18.0324 40.9001 18.0125L40.8227 17.9525L40.662 17.8289C40.4416 17.6627 40.1814 17.5045 39.8904 17.3655C39.8551 17.3463 39.8173 17.3311 39.7788 17.3166L39.6634 17.2715L39.5464 17.2265C39.5072 17.2103 39.467 17.1968 39.4261 17.1863L39.1768 17.1183C39.1558 17.1128 39.1349 17.1066 39.1136 17.1019L39.0489 17.0908L38.9186 17.069C38.8314 17.0545 38.7435 17.0388 38.654 17.0361C38.5648 17.0308 38.4748 17.0238 38.3846 17.0212L38.1135 17.0304L38.0453 17.0332L37.978 17.0414L37.8431 17.0584C37.484 17.1076 37.1296 17.2006 36.7998 17.3341C36.4693 17.466 36.1521 17.6213 35.8611 17.7991C35.7023 17.8951 35.5462 17.9958 35.3928 18.1009C34.2961 17.06 32.7649 16.7478 31.4023 17.2159C31.3988 17.2314 31.4026 17.2436 31.3977 17.2596C31.2694 17.6737 31.1635 18.105 32.8644 20.054C34.5652 22.0029 36.1212 23.7017 36.3974 22.9699C36.8539 21.7604 36.8364 20.3801 36.2293 19.2115C36.3266 19.1615 36.4247 19.1135 36.5236 19.0674C36.779 18.9471 37.0396 18.8579 37.2931 18.7899C37.547 18.7199 37.7938 18.6923 38.0226 18.6914L38.1077 18.6918L38.1499 18.6916L38.1911 18.6965C38.2456 18.7029 38.2994 18.7083 38.3526 18.7129L38.5061 18.7448C38.557 18.7517 38.6051 18.7699 38.6527 18.7854L38.7237 18.8075L38.7588 18.818C38.7703 18.8225 38.7815 18.8283 38.7928 18.8333C38.8379 18.8539 38.8822 18.8732 38.9261 18.8914C38.937 18.8962 38.9481 18.8999 38.9588 18.9055L38.9904 18.9241L39.0529 18.9599L39.1146 18.994C39.1351 19.0046 39.1554 19.0156 39.1747 19.031C39.3319 19.1374 39.4762 19.2512 39.6039 19.3776L39.6973 19.4707L39.7426 19.5149C39.7574 19.5296 39.7711 19.548 39.7851 19.5639L39.9433 19.748C39.9921 19.8078 40.0351 19.8716 40.0763 19.9256C40.1168 19.9818 40.1559 20.0284 40.188 20.0784L40.3896 20.3904C40.4106 20.4228 40.434 20.4551 40.4589 20.4855C40.815 20.9194 41.4378 20.9671 41.8499 20.5921C42.2622 20.217 42.3075 19.5612 41.9513 19.1272ZM36.0214 18.8553C36.0274 18.8647 36.0336 18.8739 36.0396 18.8832C36.0336 18.8738 36.0274 18.8646 36.0214 18.8553ZM35.9114 18.6945C35.9203 18.7068 35.9289 18.7192 35.9375 18.7317C35.9288 18.7193 35.9202 18.7068 35.9114 18.6945Z" fill="#00B89C"/>
</g>
<path d="M53.5 28C53.5 43.2051 41.6186 55.5 27 55.5C12.3814 55.5 0.5 43.2051 0.5 28C0.5 12.7949 12.3814 0.5 27 0.5C41.6186 0.5 53.5 12.7949 53.5 28Z" fill="#134280"/>
<path d="M53.5 28C53.5 43.2051 41.6186 55.5 27 55.5C12.3814 55.5 0.5 43.2051 0.5 28C0.5 12.7949 12.3814 0.5 27 0.5C41.6186 0.5 53.5 12.7949 53.5 28Z" stroke="white"/>
<path d="M53.5 28C53.5 43.2051 41.6186 55.5 27 55.5C12.3814 55.5 0.5 43.2051 0.5 28C0.5 12.7949 12.3814 0.5 27 0.5C41.6186 0.5 53.5 12.7949 53.5 28Z" stroke="white"/>
<g clip-path="url(#clip1_2001_1365)">
<path d="M12.8871 32.5075L13.108 32.3959L13.3737 32.2639L13.5422 32.1804C13.5717 32.1655 13.6043 32.1504 13.6338 32.1343L13.716 32.0841C13.8383 32.0088 13.961 31.9345 14.0843 31.8611C14.2131 31.7857 14.3665 31.6879 14.5256 31.5876C14.6849 31.4868 14.8534 31.3837 15.0267 31.2618L15.2933 31.0824L15.4303 30.9901L15.5683 30.8898C15.9404 30.6242 16.3304 30.3215 16.7303 29.9924L17.0317 29.7411C17.1328 29.6563 17.2325 29.5629 17.3343 29.4747C17.4355 29.384 17.5385 29.2979 17.6395 29.2023L17.9442 28.916C18.0464 28.8221 18.1472 28.7212 18.2487 28.621L18.5532 28.3198L18.8546 28.0051C18.9047 27.9526 18.9549 27.9 19.0051 27.8474L19.1542 27.6846C19.5545 27.259 19.9406 26.7962 20.3209 26.3393C20.5092 26.1054 20.6963 25.8749 20.8775 25.6354C21.061 25.4028 21.2388 25.1596 21.4151 24.9254C21.5891 24.6826 21.7617 24.4489 21.9278 24.2067C22.096 23.9709 22.2587 23.7303 22.418 23.4961C22.4977 23.3791 22.5753 23.2588 22.6527 23.1425C22.7298 23.0268 22.8058 22.9103 22.8806 22.793L23.103 22.4501L23.318 22.1107C23.4592 21.8884 23.5951 21.6658 23.7264 21.4532C23.8578 21.2368 23.9826 21.0296 24.1083 20.8301C24.3581 20.4359 24.6038 20.0787 24.8355 19.7737C24.9445 19.6291 25.0567 19.4872 25.172 19.3482C25.2805 19.2162 25.3843 19.0996 25.4787 18.9946C25.6729 18.7805 25.8348 18.6228 25.9545 18.513C26.0721 18.405 26.1404 18.3532 26.1404 18.3532C29.0496 16.1465 33.1067 16.8411 35.2022 19.9047C36.8561 22.3226 36.7938 25.4934 35.2637 27.8074L35.23 27.855C35.23 27.855 35.1833 27.9254 35.0853 28.0464C34.9895 28.1656 34.8352 28.3438 34.627 28.5572C34.5197 28.6655 34.4003 28.7851 34.2658 28.9102C34.1175 29.0482 33.9663 29.1826 33.8122 29.3135C33.4771 29.5973 33.0832 29.9043 32.623 30.2212C32.1643 30.5362 31.6449 30.8624 31.0941 31.2074C30.5448 31.5526 29.9472 31.9045 29.3244 32.2564C28.7005 32.6091 28.0416 32.9571 27.3642 33.2925C26.6831 33.6264 25.9828 33.9468 25.2698 34.2409C25.093 34.3159 24.9112 34.3852 24.733 34.4566C24.5543 34.5278 24.3757 34.5971 24.1937 34.662L23.6538 34.8574L23.1117 35.0393L22.843 35.1279L22.5718 35.2096L22.0353 35.3685L21.5006 35.5118L21.237 35.5811C21.1495 35.6037 21.0601 35.6226 20.9725 35.6433L20.4515 35.7617C20.2803 35.8008 20.1064 35.8312 19.9377 35.865C19.768 35.8973 19.6019 35.9306 19.4352 35.9576L18.9422 36.0339C18.2956 36.1334 17.6787 36.187 17.1142 36.2246C16.5484 36.2586 16.0333 36.2736 15.5756 36.2603C15.3473 36.2565 15.1393 36.2544 14.9288 36.2433C14.7419 36.2356 14.5551 36.2258 14.3683 36.2139L14.246 36.2063C14.2089 36.2027 14.1766 36.1974 14.1433 36.1932L13.9585 36.1684L13.6672 36.1289L13.4243 36.0943C12.4393 35.9539 11.7488 34.9991 11.8822 33.9618C11.9658 33.3105 12.3654 32.7761 12.8871 32.5075Z" fill="#FF473E"/>
<path d="M28.9573 21.4344L28.743 21.5706L28.6301 21.6424C28.6071 21.6564 28.5935 21.6669 28.5774 21.6785L28.5271 21.7144L28.4154 21.7928L28.354 21.8349L28.2856 21.8902C28.1927 21.9681 28.0873 22.0439 27.9831 22.1429L27.8198 22.2898C27.7643 22.3409 27.7096 22.3978 27.6525 22.4532C27.5376 22.5624 27.4238 22.688 27.3059 22.8123C27.247 22.8746 27.1896 22.9425 27.1306 23.008C27.072 23.074 27.0128 23.14 26.9547 23.2099L26.7796 23.4164L26.606 23.6273L26.2655 24.0458C26.1532 24.1842 26.0451 24.3177 25.9373 24.4466C25.8332 24.5743 25.7252 24.6969 25.6288 24.8088C25.5366 24.9121 25.4428 25.0139 25.3475 25.1141C25.2559 25.2042 25.1796 25.2823 25.1107 25.3456L24.8849 25.5411C24.7741 25.6372 24.633 25.6861 24.4897 25.678C24.3463 25.6699 24.2111 25.6054 24.1107 25.4973C24.0103 25.3893 23.9521 25.2455 23.9476 25.0944C23.943 24.9433 23.9925 24.7959 24.0862 24.6813L24.1287 24.6295L24.2645 24.4633C24.3073 24.4079 24.3583 24.3334 24.4173 24.253C24.4831 24.1554 24.5476 24.0567 24.6108 23.9571C24.6805 23.8421 24.7562 23.7217 24.8353 23.5838C24.9144 23.4498 24.9984 23.3023 25.0852 23.1503L25.3584 22.6733L25.5023 22.4252L25.653 22.1736C25.7024 22.0895 25.7556 22.0055 25.8084 21.9218C25.8617 21.8381 25.9122 21.7542 25.9674 21.6718C26.0781 21.5072 26.1839 21.3437 26.2994 21.1891C26.3562 21.1115 26.4099 21.0341 26.4669 20.9602L26.6377 20.7445C26.7457 20.6024 26.8653 20.4766 26.9689 20.3564L27.0469 20.2688L27.1324 20.1828L27.2919 20.0245L27.3652 19.9527C27.3887 19.9297 27.413 19.9057 27.4295 19.8915L27.5297 19.801L27.7197 19.6295C28.1644 19.2278 28.8341 19.282 29.2155 19.7503C29.5968 20.2186 29.5455 20.9238 29.1008 21.3254C29.0578 21.3643 29.0119 21.3995 28.9636 21.4307L28.9573 21.4344Z" fill="#FF6E83"/>
<path d="M41.9513 19.1272L41.9341 19.1063L41.6227 18.7269C41.5729 18.6668 41.5101 18.6049 41.4459 18.5352C41.3798 18.4667 41.312 18.39 41.2325 18.3133L40.9711 18.0751C40.9476 18.0546 40.9255 18.0324 40.9001 18.0125L40.8227 17.9525L40.662 17.8289C40.4416 17.6627 40.1814 17.5045 39.8904 17.3655C39.8551 17.3463 39.8173 17.3311 39.7788 17.3166L39.6634 17.2715L39.5464 17.2265C39.5072 17.2103 39.467 17.1968 39.4261 17.1863L39.1768 17.1183C39.1558 17.1128 39.1349 17.1066 39.1136 17.1019L39.0489 17.0908L38.9186 17.069C38.8314 17.0545 38.7435 17.0388 38.654 17.0361C38.5648 17.0308 38.4748 17.0238 38.3846 17.0212L38.1135 17.0304L38.0453 17.0332L37.978 17.0414L37.8431 17.0584C37.484 17.1076 37.1296 17.2006 36.7998 17.3341C36.4693 17.466 36.1521 17.6213 35.8611 17.7991C35.7023 17.8951 35.5462 17.9958 35.3928 18.1009C34.2961 17.06 32.7649 16.7478 31.4023 17.2159C31.3988 17.2314 31.4026 17.2436 31.3977 17.2596C31.2694 17.6737 31.1635 18.105 32.8644 20.054C34.5652 22.0029 36.1212 23.7017 36.3974 22.9699C36.8539 21.7604 36.8364 20.3801 36.2293 19.2115C36.3266 19.1615 36.4247 19.1135 36.5236 19.0674C36.779 18.9471 37.0396 18.8579 37.2931 18.7899C37.547 18.7199 37.7938 18.6923 38.0226 18.6914L38.1077 18.6918L38.1499 18.6916L38.1911 18.6965C38.2456 18.7029 38.2994 18.7083 38.3526 18.7129L38.5061 18.7448C38.557 18.7517 38.6051 18.7699 38.6527 18.7854L38.7237 18.8075L38.7588 18.818C38.7703 18.8225 38.7815 18.8283 38.7928 18.8333C38.8379 18.8539 38.8822 18.8732 38.9261 18.8914C38.937 18.8962 38.9481 18.8999 38.9588 18.9055L38.9904 18.9241L39.0529 18.9599L39.1146 18.994C39.1351 19.0046 39.1554 19.0156 39.1747 19.031C39.3319 19.1374 39.4762 19.2512 39.6039 19.3776L39.6973 19.4707L39.7426 19.5149C39.7574 19.5296 39.7711 19.548 39.7851 19.5639L39.9433 19.748C39.9921 19.8078 40.0351 19.8716 40.0763 19.9256C40.1168 19.9818 40.1559 20.0284 40.188 20.0784L40.3896 20.3904C40.4106 20.4228 40.434 20.4551 40.4589 20.4855C40.815 20.9194 41.4378 20.9671 41.8499 20.5921C42.2622 20.217 42.3075 19.5612 41.9513 19.1272ZM36.0214 18.8553C36.0274 18.8647 36.0336 18.8739 36.0396 18.8832C36.0336 18.8738 36.0274 18.8646 36.0214 18.8553ZM35.9114 18.6945C35.9203 18.7068 35.9289 18.7192 35.9375 18.7317C35.9288 18.7193 35.9202 18.7068 35.9114 18.6945Z" fill="#00B89C"/>
</g>
<defs>
<clipPath id="clip0_2001_1365">
<rect width="31.0213" height="32.6667" fill="white" transform="translate(11.4893 9.33301)"/>
</clipPath>
<clipPath id="clip1_2001_1365">
<rect width="31.0213" height="32.6667" fill="white" transform="translate(11.4893 9.33301)"/>
</clipPath>
</defs>
</svg>
