<svg width="47" height="48" viewBox="0 0 47 48" fill="none" xmlns="http://www.w3.org/2000/svg">
<path d="M46.5 24C46.5 36.9887 36.1927 47.5 23.5 47.5C10.8073 47.5 0.5 36.9887 0.5 24C0.5 11.0113 10.8073 0.5 23.5 0.5C36.1927 0.5 46.5 11.0113 46.5 24Z" fill="#134280"/>
<path d="M46.5 24C46.5 36.9887 36.1927 47.5 23.5 47.5C10.8073 47.5 0.5 36.9887 0.5 24C0.5 11.0113 10.8073 0.5 23.5 0.5C36.1927 0.5 46.5 11.0113 46.5 24Z" stroke="white"/>
<path d="M46.5 24C46.5 36.9887 36.1927 47.5 23.5 47.5C10.8073 47.5 0.5 36.9887 0.5 24C0.5 11.0113 10.8073 0.5 23.5 0.5C36.1927 0.5 46.5 11.0113 46.5 24Z" stroke="white"/>
<path d="M33 27.9999V19.9999C32.9996 19.6492 32.9071 19.3047 32.7315 19.0011C32.556 18.6974 32.3037 18.4453 32 18.2699L25 14.2699C24.696 14.0944 24.3511 14.002 24 14.002C23.6489 14.002 23.304 14.0944 23 14.2699L16 18.2699C15.6963 18.4453 15.444 18.6974 15.2685 19.0011C15.0929 19.3047 15.0004 19.6492 15 19.9999V27.9999C15.0004 28.3506 15.0929 28.6951 15.2685 28.9987C15.444 29.3024 15.6963 29.5545 16 29.7299L23 33.7299C23.304 33.9054 23.6489 33.9979 24 33.9979C24.3511 33.9979 24.696 33.9054 25 33.7299L32 29.7299C32.3037 29.5545 32.556 29.3024 32.7315 28.9987C32.9071 28.6951 32.9996 28.3506 33 27.9999Z" stroke="white" stroke-width="2" stroke-linecap="round" stroke-linejoin="round"/>
<path d="M15.27 18.96L24 24.01L32.73 18.96" stroke="white" stroke-width="2" stroke-linecap="round" stroke-linejoin="round"/>
<path d="M24 34.08V24" stroke="white" stroke-width="2" stroke-linecap="round" stroke-linejoin="round"/>
</svg>
