<svg width="47" height="48" viewBox="0 0 47 48" fill="none" xmlns="http://www.w3.org/2000/svg">
<path d="M46.5 24C46.5 36.9887 36.1927 47.5 23.5 47.5C10.8073 47.5 0.5 36.9887 0.5 24C0.5 11.0113 10.8073 0.5 23.5 0.5C36.1927 0.5 46.5 11.0113 46.5 24Z" fill="#134280"/>
<path d="M46.5 24C46.5 36.9887 36.1927 47.5 23.5 47.5C10.8073 47.5 0.5 36.9887 0.5 24C0.5 11.0113 10.8073 0.5 23.5 0.5C36.1927 0.5 46.5 11.0113 46.5 24Z" stroke="white"/>
<path d="M46.5 24C46.5 36.9887 36.1927 47.5 23.5 47.5C10.8073 47.5 0.5 36.9887 0.5 24C0.5 11.0113 10.8073 0.5 23.5 0.5C36.1927 0.5 46.5 11.0113 46.5 24Z" stroke="white"/>
<path d="M32.8848 28.3511C32.881 28.7884 32.7062 29.2063 32.3988 29.5128C32.0915 29.8193 31.6767 29.9893 31.2459 29.9854L16.6243 29.8543C16.1934 29.8504 15.7817 29.673 15.4797 29.361C15.1778 29.0491 15.0102 28.6282 15.014 28.1909L15.093 19.1221C15.0968 18.6848 15.2716 18.267 15.579 17.9605C15.8864 17.654 16.3011 17.484 16.732 17.4879L19.9812 17.517L21.6274 15.0583L26.5012 15.102L28.1043 17.5899L31.3535 17.619C31.7844 17.6229 32.1961 17.8003 32.4981 18.1122C32.8001 18.4242 32.9676 18.8451 32.9638 19.2824L32.8848 28.3511Z" stroke="white" stroke-width="2" stroke-linecap="round" stroke-linejoin="round"/>
<path d="M23.9643 26.6226C25.7588 26.6387 27.2264 25.1753 27.2422 23.354C27.2581 21.5328 25.8162 20.0433 24.0217 20.0272C22.2272 20.0111 20.7596 21.4745 20.7437 23.2958C20.7279 25.117 22.1698 26.6065 23.9643 26.6226Z" stroke="white" stroke-width="2" stroke-linecap="round" stroke-linejoin="round"/>
</svg>
