<svg width="54" height="56" viewBox="0 0 54 56" fill="none" xmlns="http://www.w3.org/2000/svg">
<path d="M53.5 28C53.5 43.2051 41.6186 55.5 27 55.5C12.3814 55.5 0.5 43.2051 0.5 28C0.5 12.7949 12.3814 0.5 27 0.5C41.6186 0.5 53.5 12.7949 53.5 28Z" fill="#134280"/>
<path d="M53.5 28C53.5 43.2051 41.6186 55.5 27 55.5C12.3814 55.5 0.5 43.2051 0.5 28C0.5 12.7949 12.3814 0.5 27 0.5C41.6186 0.5 53.5 12.7949 53.5 28Z" stroke="white"/>
<path d="M53.5 28C53.5 43.2051 41.6186 55.5 27 55.5C12.3814 55.5 0.5 43.2051 0.5 28C0.5 12.7949 12.3814 0.5 27 0.5C41.6186 0.5 53.5 12.7949 53.5 28Z" stroke="white"/>
<path d="M23.1357 35.1631L20.9074 30.3446C20.9074 30.3446 20.5304 27.6351 20.7817 24.0471C21.0016 20.9168 21.5559 18.7142 23.0392 16.7529C24.1904 15.232 26.0215 13.689 27.8414 12.9655C29.6613 12.242 29.8498 12.2075 29.8498 12.4487C29.8498 12.6898 26.9954 14.1049 25.0184 17.1318C23.0414 20.1588 23.1357 23.0504 23.01 24.9429C22.8844 26.8353 23.1357 35.1631 23.1357 35.1631Z" fill="#717F35"/>
<path d="M15.8559 22.364C17.0542 24.7191 18.192 29.1168 19.5047 32.4341C20.7277 35.53 22.0068 37.9171 23.1355 39.086C24.2643 40.255 25.2943 40.1516 25.7408 39.7407C26.4118 39.1205 26.0595 37.4003 26.055 36.4036C26.046 34.6219 26.3557 33.3914 26.8404 32.4809C27.2668 31.6811 28.0656 30.869 28.9116 31.1471C29.9282 31.4817 30.6059 32.5842 30.92 33.101C31.2342 33.6178 31.7054 34.649 31.9231 34.649C32.1408 34.649 31.784 31.9887 30.7495 30.4285C29.7262 28.8855 28.2564 28.5828 26.9369 29.2128C23.9905 30.6204 23.9075 34.8926 23.9075 34.8926C23.9075 34.8926 22.0404 33.1675 20.7546 28.6615C20.4405 27.5615 19.4531 23.6535 18.4725 22.0588C16.9645 19.6053 15.3533 19.0934 14.4445 18.7489C13.5356 18.4043 12.4361 18.0598 12.4046 18.2665C12.3732 18.4757 14.5073 19.7135 15.8559 22.364Z" fill="#94A61D"/>
<path d="M24.8279 36.4853C24.7381 35.8011 24.4554 34.012 24.5676 31.7652C24.6439 30.2025 25.0366 27.6062 27.1953 26.7547C28.9322 26.0706 30.2876 26.0632 32.1367 27.0377C33.8511 27.9409 33.0253 26.735 32.2197 26.2773C31.6609 25.9598 29.28 24.6408 26.9216 25.5193C24.1794 26.5406 23.4478 30.1336 23.4478 30.1336C23.4478 30.1336 23.2481 26.2256 23.9819 24.2987C24.7157 22.3693 26.0352 20.7919 25.6739 20.6614C25.5393 20.6122 23.8742 21.3579 22.9362 23.713C21.9354 26.2281 21.8905 28.4995 21.9556 29.794C22.0206 31.0884 22.1889 32.3607 22.1889 32.3607C22.1889 32.3607 22.6557 33.5494 23.2055 34.3196C23.7149 35.0358 24.8548 36.6944 24.8279 36.4853Z" fill="#FFBD13"/>
<path d="M26.5757 17.1073C26.4657 17.0827 25.2988 17.5749 24.7109 19.1204C24.123 20.6658 24.6234 21.9406 24.6234 21.9406C24.6234 21.9406 26.1942 20.4419 26.4882 19.5092C26.7821 18.574 26.7238 17.1393 26.5757 17.1073Z" fill="#FFBD13"/>
<path d="M29.5154 21.4876C29.5311 21.4089 28.326 20.2965 27.3993 20.2793C26.4747 20.2621 25.3438 21.1332 25.3438 21.1332C25.3438 21.1332 25.7297 22.1471 27.1951 22.3243C28.252 22.4548 29.4862 21.6328 29.5154 21.4876ZM27.0178 19.6198C27.121 19.7157 28.3103 19.5705 28.9993 18.6772C29.7241 17.7371 29.7353 15.6084 29.5154 15.6084C29.2528 15.6084 29.0755 15.9136 28.62 16.2212C28.1645 16.5264 27.3275 17.4295 27.1075 18.1211C26.8854 18.815 26.9146 19.5238 27.0178 19.6198ZM28.1869 19.7723C28.2116 20.0578 29.1316 21.0003 30.1527 21.0496C31.1737 21.0988 32.0758 20.6755 32.0758 20.5082C32.0758 20.3408 31.425 19.0882 30.2963 18.9652C29.0755 18.8347 28.1757 19.6419 28.1869 19.7723ZM29.6904 18.5566C29.8116 18.7855 31.2163 18.4976 31.8761 17.5083C32.4842 16.5977 32.3698 15.5691 32.3047 15.4362C32.2396 15.3033 31.2612 15.4116 30.4803 16.4009C29.834 17.2203 29.5805 18.345 29.6904 18.5566ZM31.1513 18.5566C31.1445 18.7732 31.7325 19.6542 32.4034 19.9914C33.4132 20.4983 34.6991 20.1956 34.7552 20.0037C34.809 19.8117 34.2054 18.5123 33.393 18.1235C32.4371 17.6658 31.1625 18.2072 31.1513 18.5566ZM32.5919 17.5673C32.5919 17.8577 34.174 17.8085 34.735 17.3877C35.296 16.9669 35.8772 15.8324 36.0096 15.6773C36.142 15.5223 36.1644 15.3648 35.8772 15.2688C35.5922 15.1728 34.1852 15.1236 33.3728 15.7881C32.5605 16.4525 32.5919 17.5083 32.5919 17.5673ZM34.3714 17.9537C34.2256 18.0448 34.4477 18.3524 34.5577 18.6034C34.6676 18.8569 35.0401 19.8806 35.8547 20.3261C36.6334 20.7518 37.6903 20.7247 37.733 20.6632C37.7778 20.6041 37.549 19.1719 36.7546 18.5197C35.7874 17.7248 34.6452 17.7864 34.3714 17.9537ZM35.5675 17.4C35.5944 17.5403 36.6671 18.158 37.5781 18.2441C38.4892 18.3302 39.3913 17.3286 39.4025 17.2203C39.4137 17.1121 38.579 16.1351 37.6342 16.172C36.3933 16.2187 35.5361 17.2302 35.5675 17.4ZM31.5485 22.7255C31.5305 22.4966 29.8228 22.4597 28.9566 23.449C28.0882 24.4358 28.0657 25.3759 28.0657 25.3759L28.6918 25.8213C28.6918 25.8213 29.8901 25.243 30.5364 24.5564C31.2904 23.7566 31.5686 23.0011 31.5485 22.7255Z" fill="#FFBD13"/>
<path d="M29.9936 29.0846C30.2696 29.0969 30.2135 27.8197 29.9487 27.0248C29.6682 26.1807 28.9277 25.5802 28.9277 25.5802L28.0054 25.7968C28.0054 25.7968 28.0256 26.7984 28.4699 27.6671C29.0601 28.8139 29.74 29.0723 29.9936 29.0846ZM30.2516 26.0011C30.2516 26.0011 30.1596 27.0322 30.5927 27.9895C31.0438 28.9886 32.0311 29.567 32.251 29.471C32.471 29.375 32.361 28.1569 32.2174 27.5785C32.0738 27.0002 31.4163 26.097 31.4163 26.097L30.2516 26.0011ZM30.1305 25.4966C30.1305 25.4966 30.8328 24.244 31.69 23.8576C32.913 23.3063 34.4704 23.9905 34.4794 24.244C34.4906 24.4974 33.4247 25.3514 32.8973 25.5704C32.37 25.787 31.2929 25.9912 31.2929 25.9912L30.1305 25.4966ZM34.5242 25.531C33.5907 25.5753 32.6684 26.1586 32.646 26.4834C32.6236 26.8083 33.4471 27.5318 34.6005 27.5318C35.754 27.5318 36.4676 26.6877 36.4676 26.5671C36.4698 26.4465 35.8101 25.472 34.5242 25.531Z" fill="#FFBD13"/>
<path d="M32.9221 26.9339C32.6775 26.8847 32.4172 28.2481 32.8346 29.3309C33.2519 30.4161 34.3717 30.9575 34.4615 30.9945C34.7487 31.1126 34.6702 29.1881 34.3291 28.4031C34.0172 27.6894 33.2721 27.0077 32.9221 26.9339ZM34.5243 27.8912C34.4278 28.0758 34.6455 29.3136 35.1504 30.0347C35.9403 31.1667 37.1386 31.2504 37.2598 31.1913C37.3809 31.1323 37.2373 29.4072 36.4699 28.5901C35.7316 27.8051 34.6118 27.7214 34.5243 27.8912Z" fill="#FFBD13"/>
<path d="M53.5 28C53.5 43.2051 41.6186 55.5 27 55.5C12.3814 55.5 0.5 43.2051 0.5 28C0.5 12.7949 12.3814 0.5 27 0.5C41.6186 0.5 53.5 12.7949 53.5 28Z" fill="#134280"/>
<path d="M53.5 28C53.5 43.2051 41.6186 55.5 27 55.5C12.3814 55.5 0.5 43.2051 0.5 28C0.5 12.7949 12.3814 0.5 27 0.5C41.6186 0.5 53.5 12.7949 53.5 28Z" stroke="white"/>
<path d="M53.5 28C53.5 43.2051 41.6186 55.5 27 55.5C12.3814 55.5 0.5 43.2051 0.5 28C0.5 12.7949 12.3814 0.5 27 0.5C41.6186 0.5 53.5 12.7949 53.5 28Z" stroke="white"/>
<path d="M23.1357 35.1631L20.9074 30.3446C20.9074 30.3446 20.5304 27.6351 20.7817 24.0471C21.0016 20.9168 21.5559 18.7142 23.0392 16.7529C24.1904 15.232 26.0215 13.689 27.8414 12.9655C29.6613 12.242 29.8498 12.2075 29.8498 12.4487C29.8498 12.6898 26.9954 14.1049 25.0184 17.1318C23.0414 20.1588 23.1357 23.0504 23.01 24.9429C22.8844 26.8353 23.1357 35.1631 23.1357 35.1631Z" fill="#717F35"/>
<path d="M15.8559 22.364C17.0542 24.7191 18.192 29.1168 19.5047 32.4341C20.7277 35.53 22.0068 37.9171 23.1355 39.086C24.2643 40.255 25.2943 40.1516 25.7408 39.7407C26.4118 39.1205 26.0595 37.4003 26.055 36.4036C26.046 34.6219 26.3557 33.3914 26.8404 32.4809C27.2668 31.6811 28.0656 30.869 28.9116 31.1471C29.9282 31.4817 30.6059 32.5842 30.92 33.101C31.2342 33.6178 31.7054 34.649 31.9231 34.649C32.1408 34.649 31.784 31.9887 30.7495 30.4285C29.7262 28.8855 28.2564 28.5828 26.9369 29.2128C23.9905 30.6204 23.9075 34.8926 23.9075 34.8926C23.9075 34.8926 22.0404 33.1675 20.7546 28.6615C20.4405 27.5615 19.4531 23.6535 18.4725 22.0588C16.9645 19.6053 15.3533 19.0934 14.4445 18.7489C13.5356 18.4043 12.4361 18.0598 12.4046 18.2665C12.3732 18.4757 14.5073 19.7135 15.8559 22.364Z" fill="#94A61D"/>
<path d="M24.8279 36.4853C24.7381 35.8011 24.4554 34.012 24.5676 31.7652C24.6439 30.2025 25.0366 27.6062 27.1953 26.7547C28.9322 26.0706 30.2876 26.0632 32.1367 27.0377C33.8511 27.9409 33.0253 26.735 32.2197 26.2773C31.6609 25.9598 29.28 24.6408 26.9216 25.5193C24.1794 26.5406 23.4478 30.1336 23.4478 30.1336C23.4478 30.1336 23.2481 26.2256 23.9819 24.2987C24.7157 22.3693 26.0352 20.7919 25.6739 20.6614C25.5393 20.6122 23.8742 21.3579 22.9362 23.713C21.9354 26.2281 21.8905 28.4995 21.9556 29.794C22.0206 31.0884 22.1889 32.3607 22.1889 32.3607C22.1889 32.3607 22.6557 33.5494 23.2055 34.3196C23.7149 35.0358 24.8548 36.6944 24.8279 36.4853Z" fill="#FFBD13"/>
<path d="M26.5757 17.1073C26.4657 17.0827 25.2988 17.5749 24.7109 19.1204C24.123 20.6658 24.6234 21.9406 24.6234 21.9406C24.6234 21.9406 26.1942 20.4419 26.4882 19.5092C26.7821 18.574 26.7238 17.1393 26.5757 17.1073Z" fill="#FFBD13"/>
<path d="M29.5154 21.4876C29.5311 21.4089 28.326 20.2965 27.3993 20.2793C26.4747 20.2621 25.3438 21.1332 25.3438 21.1332C25.3438 21.1332 25.7297 22.1471 27.1951 22.3243C28.252 22.4548 29.4862 21.6328 29.5154 21.4876ZM27.0178 19.6198C27.121 19.7157 28.3103 19.5705 28.9993 18.6772C29.7241 17.7371 29.7353 15.6084 29.5154 15.6084C29.2528 15.6084 29.0755 15.9136 28.62 16.2212C28.1645 16.5264 27.3275 17.4295 27.1075 18.1211C26.8854 18.815 26.9146 19.5238 27.0178 19.6198ZM28.1869 19.7723C28.2116 20.0578 29.1316 21.0003 30.1527 21.0496C31.1737 21.0988 32.0758 20.6755 32.0758 20.5082C32.0758 20.3408 31.425 19.0882 30.2963 18.9652C29.0755 18.8347 28.1757 19.6419 28.1869 19.7723ZM29.6904 18.5566C29.8116 18.7855 31.2163 18.4976 31.8761 17.5083C32.4842 16.5977 32.3698 15.5691 32.3047 15.4362C32.2396 15.3033 31.2612 15.4116 30.4803 16.4009C29.834 17.2203 29.5805 18.345 29.6904 18.5566ZM31.1513 18.5566C31.1445 18.7732 31.7325 19.6542 32.4034 19.9914C33.4132 20.4983 34.6991 20.1956 34.7552 20.0037C34.809 19.8117 34.2054 18.5123 33.393 18.1235C32.4371 17.6658 31.1625 18.2072 31.1513 18.5566ZM32.5919 17.5673C32.5919 17.8577 34.174 17.8085 34.735 17.3877C35.296 16.9669 35.8772 15.8324 36.0096 15.6773C36.142 15.5223 36.1644 15.3648 35.8772 15.2688C35.5922 15.1728 34.1852 15.1236 33.3728 15.7881C32.5605 16.4525 32.5919 17.5083 32.5919 17.5673ZM34.3714 17.9537C34.2256 18.0448 34.4477 18.3524 34.5577 18.6034C34.6676 18.8569 35.0401 19.8806 35.8547 20.3261C36.6334 20.7518 37.6903 20.7247 37.733 20.6632C37.7778 20.6041 37.549 19.1719 36.7546 18.5197C35.7874 17.7248 34.6452 17.7864 34.3714 17.9537ZM35.5675 17.4C35.5944 17.5403 36.6671 18.158 37.5781 18.2441C38.4892 18.3302 39.3913 17.3286 39.4025 17.2203C39.4137 17.1121 38.579 16.1351 37.6342 16.172C36.3933 16.2187 35.5361 17.2302 35.5675 17.4ZM31.5485 22.7255C31.5305 22.4966 29.8228 22.4597 28.9566 23.449C28.0882 24.4358 28.0657 25.3759 28.0657 25.3759L28.6918 25.8213C28.6918 25.8213 29.8901 25.243 30.5364 24.5564C31.2904 23.7566 31.5686 23.0011 31.5485 22.7255Z" fill="#FFBD13"/>
<path d="M29.9936 29.0846C30.2696 29.0969 30.2135 27.8197 29.9487 27.0248C29.6682 26.1807 28.9277 25.5802 28.9277 25.5802L28.0054 25.7968C28.0054 25.7968 28.0256 26.7984 28.4699 27.6671C29.0601 28.8139 29.74 29.0723 29.9936 29.0846ZM30.2516 26.0011C30.2516 26.0011 30.1596 27.0322 30.5927 27.9895C31.0438 28.9886 32.0311 29.567 32.251 29.471C32.471 29.375 32.361 28.1569 32.2174 27.5785C32.0738 27.0002 31.4163 26.097 31.4163 26.097L30.2516 26.0011ZM30.1305 25.4966C30.1305 25.4966 30.8328 24.244 31.69 23.8576C32.913 23.3063 34.4704 23.9905 34.4794 24.244C34.4906 24.4974 33.4247 25.3514 32.8973 25.5704C32.37 25.787 31.2929 25.9912 31.2929 25.9912L30.1305 25.4966ZM34.5242 25.531C33.5907 25.5753 32.6684 26.1586 32.646 26.4834C32.6236 26.8083 33.4471 27.5318 34.6005 27.5318C35.754 27.5318 36.4676 26.6877 36.4676 26.5671C36.4698 26.4465 35.8101 25.472 34.5242 25.531Z" fill="#FFBD13"/>
<path d="M32.9221 26.9339C32.6775 26.8847 32.4172 28.2481 32.8346 29.3309C33.2519 30.4161 34.3717 30.9575 34.4615 30.9945C34.7487 31.1126 34.6702 29.1881 34.3291 28.4031C34.0172 27.6894 33.2721 27.0077 32.9221 26.9339ZM34.5243 27.8912C34.4278 28.0758 34.6455 29.3136 35.1504 30.0347C35.9403 31.1667 37.1386 31.2504 37.2598 31.1913C37.3809 31.1323 37.2373 29.4072 36.4699 28.5901C35.7316 27.8051 34.6118 27.7214 34.5243 27.8912Z" fill="#FFBD13"/>
</svg>
